<svg width="592" height="20" viewBox="0 0 592 20" fill="none" xmlns="http://www.w3.org/2000/svg">
<rect x="222.5" y="4" width="12" height="12" rx="2" fill="#BEF264"/>
<circle cx="228.5" cy="10" r="4" fill="#022C22"/>
<path d="M245.02 11.5V10.226H247.302C247.797 10.226 248.203 10.0533 248.52 9.708C248.837 9.35333 248.996 8.90067 248.996 8.35C248.996 7.97667 248.912 7.65 248.744 7.37C248.576 7.08067 248.343 6.85667 248.044 6.698C247.755 6.53 247.419 6.45067 247.036 6.46H245.02V5.2L247.05 5.186C247.703 5.186 248.277 5.32133 248.772 5.592C249.276 5.86267 249.668 6.236 249.948 6.712C250.237 7.17867 250.382 7.72467 250.382 8.35C250.382 8.95667 250.251 9.498 249.99 9.974C249.729 10.45 249.365 10.8233 248.898 11.094C248.441 11.3647 247.913 11.5 247.316 11.5H245.02ZM243.746 15V5.2H245.118V15H243.746ZM254.598 15.168C253.898 15.168 253.282 15.014 252.75 14.706C252.218 14.3887 251.798 13.9547 251.49 13.404C251.192 12.8533 251.042 12.2187 251.042 11.5C251.042 10.7813 251.192 10.1467 251.49 9.596C251.789 9.04533 252.204 8.616 252.736 8.308C253.268 7.99067 253.88 7.832 254.57 7.832C255.261 7.832 255.872 7.99067 256.404 8.308C256.936 8.616 257.352 9.04533 257.65 9.596C257.949 10.1467 258.098 10.7813 258.098 11.5C258.098 12.2187 257.949 12.8533 257.65 13.404C257.352 13.9547 256.936 14.3887 256.404 14.706C255.882 15.014 255.28 15.168 254.598 15.168ZM254.598 13.95C255.018 13.95 255.392 13.8473 255.718 13.642C256.045 13.4273 256.297 13.138 256.474 12.774C256.661 12.41 256.754 11.9853 256.754 11.5C256.754 11.0147 256.661 10.59 256.474 10.226C256.297 9.862 256.04 9.57733 255.704 9.372C255.368 9.15733 254.99 9.05 254.57 9.05C254.141 9.05 253.763 9.15733 253.436 9.372C253.11 9.57733 252.853 9.862 252.666 10.226C252.48 10.59 252.386 11.0147 252.386 11.5C252.386 11.9853 252.48 12.41 252.666 12.774C252.853 13.138 253.114 13.4273 253.45 13.642C253.786 13.8473 254.169 13.95 254.598 13.95ZM265.693 15L268.059 8H269.389L267.009 15H265.693ZM260.975 15L263.299 8H264.503L262.207 15H260.975ZM260.877 15L258.497 8H259.841L262.151 15H260.877ZM265.693 15L263.397 8H264.615L266.925 15H265.693ZM273.311 15.168C272.63 15.168 272.028 15.014 271.505 14.706C270.982 14.3887 270.572 13.9547 270.273 13.404C269.974 12.8533 269.825 12.2187 269.825 11.5C269.825 10.7813 269.974 10.1467 270.273 9.596C270.572 9.04533 270.982 8.616 271.505 8.308C272.037 7.99067 272.644 7.832 273.325 7.832C273.96 7.832 274.52 7.99533 275.005 8.322C275.5 8.63933 275.882 9.09667 276.153 9.694C276.433 10.282 276.573 10.9773 276.573 11.78H275.243C275.252 11.1827 275.178 10.6787 275.019 10.268C274.87 9.85733 274.646 9.54933 274.347 9.344C274.058 9.12933 273.708 9.022 273.297 9.022C272.858 9.022 272.48 9.12467 272.163 9.33C271.846 9.526 271.598 9.81067 271.421 10.184C271.253 10.548 271.169 10.996 271.169 11.528C271.169 12.0227 271.267 12.452 271.463 12.816C271.659 13.1707 271.925 13.4507 272.261 13.656C272.597 13.852 272.98 13.95 273.409 13.95C273.866 13.95 274.244 13.8427 274.543 13.628C274.851 13.4133 275.094 13.138 275.271 12.802L276.461 13.348C276.274 13.712 276.032 14.034 275.733 14.314C275.434 14.5847 275.08 14.7947 274.669 14.944C274.268 15.0933 273.815 15.168 273.311 15.168ZM270.693 11.78L270.707 10.688H275.831V11.78H270.693ZM278.643 11.234C278.643 10.478 278.788 9.862 279.077 9.386C279.366 8.91 279.74 8.55533 280.197 8.322C280.654 8.08867 281.135 7.972 281.639 7.972V9.232C281.219 9.232 280.818 9.29733 280.435 9.428C280.062 9.54933 279.754 9.75467 279.511 10.044C279.278 10.324 279.161 10.7067 279.161 11.192L278.643 11.234ZM277.831 15V8H279.161V15H277.831ZM282.74 15L282.768 8H284.084L284.07 15H282.74ZM283.412 6.516C283.197 6.516 283.01 6.43667 282.852 6.278C282.693 6.11 282.614 5.91867 282.614 5.704C282.614 5.48 282.693 5.29333 282.852 5.144C283.01 4.98533 283.197 4.906 283.412 4.906C283.636 4.906 283.822 4.98533 283.972 5.144C284.13 5.29333 284.21 5.48 284.21 5.704C284.21 5.91867 284.13 6.11 283.972 6.278C283.822 6.43667 283.636 6.516 283.412 6.516ZM285.963 15V8H287.209L287.293 9.288V15H285.963ZM290.807 15V11.416L292.137 10.996V15H290.807ZM290.807 11.416C290.807 10.7813 290.732 10.3007 290.583 9.974C290.443 9.638 290.242 9.40467 289.981 9.274C289.729 9.14333 289.435 9.07333 289.099 9.064C288.53 9.064 288.086 9.26467 287.769 9.666C287.452 10.0673 287.293 10.632 287.293 11.36H286.719C286.719 10.6227 286.826 9.99267 287.041 9.47C287.256 8.938 287.564 8.532 287.965 8.252C288.376 7.972 288.866 7.832 289.435 7.832C290.275 7.832 290.933 8.09333 291.409 8.616C291.894 9.12933 292.137 9.92267 292.137 10.996L290.807 11.416ZM296.653 17.982C296.186 17.982 295.761 17.9353 295.379 17.842C294.996 17.758 294.674 17.66 294.413 17.548C294.151 17.436 293.955 17.338 293.825 17.254L294.329 16.176C294.45 16.2507 294.623 16.3347 294.847 16.428C295.071 16.5307 295.332 16.6147 295.631 16.68C295.929 16.7547 296.261 16.792 296.625 16.792C297.054 16.792 297.437 16.7033 297.773 16.526C298.109 16.358 298.37 16.092 298.557 15.728C298.753 15.364 298.851 14.8973 298.851 14.328V8H300.181V14.3C300.181 15.1027 300.027 15.7747 299.719 16.316C299.42 16.8667 299.005 17.282 298.473 17.562C297.95 17.842 297.343 17.982 296.653 17.982ZM296.527 14.902C295.892 14.902 295.337 14.7573 294.861 14.468C294.394 14.1693 294.025 13.7587 293.755 13.236C293.493 12.704 293.363 12.0927 293.363 11.402C293.363 10.6833 293.493 10.058 293.755 9.526C294.025 8.994 294.394 8.57867 294.861 8.28C295.337 7.98133 295.892 7.832 296.527 7.832C297.105 7.832 297.609 7.98133 298.039 8.28C298.477 8.57867 298.813 8.99867 299.047 9.54C299.289 10.072 299.411 10.6973 299.411 11.416C299.411 12.1067 299.289 12.718 299.047 13.25C298.813 13.7727 298.477 14.1787 298.039 14.468C297.609 14.7573 297.105 14.902 296.527 14.902ZM296.863 13.782C297.255 13.782 297.595 13.6793 297.885 13.474C298.174 13.2593 298.403 12.9747 298.571 12.62C298.739 12.256 298.823 11.8407 298.823 11.374C298.823 10.9073 298.739 10.4967 298.571 10.142C298.403 9.78733 298.169 9.512 297.871 9.316C297.581 9.11067 297.241 9.008 296.849 9.008C296.438 9.008 296.074 9.11067 295.757 9.316C295.449 9.512 295.206 9.78733 295.029 10.142C294.851 10.4967 294.763 10.9073 294.763 11.374C294.763 11.8407 294.851 12.256 295.029 12.62C295.215 12.9747 295.463 13.2593 295.771 13.474C296.088 13.6793 296.452 13.782 296.863 13.782ZM307.642 15V6.012H309.028V15H307.642ZM304.576 6.46V5.2H312.094V6.46H304.576ZM315.413 15.168C314.713 15.168 314.097 15.014 313.565 14.706C313.033 14.3887 312.613 13.9547 312.305 13.404C312.006 12.8533 311.857 12.2187 311.857 11.5C311.857 10.7813 312.006 10.1467 312.305 9.596C312.603 9.04533 313.019 8.616 313.551 8.308C314.083 7.99067 314.694 7.832 315.385 7.832C316.075 7.832 316.687 7.99067 317.219 8.308C317.751 8.616 318.166 9.04533 318.465 9.596C318.763 10.1467 318.913 10.7813 318.913 11.5C318.913 12.2187 318.763 12.8533 318.465 13.404C318.166 13.9547 317.751 14.3887 317.219 14.706C316.696 15.014 316.094 15.168 315.413 15.168ZM315.413 13.95C315.833 13.95 316.206 13.8473 316.533 13.642C316.859 13.4273 317.111 13.138 317.289 12.774C317.475 12.41 317.569 11.9853 317.569 11.5C317.569 11.0147 317.475 10.59 317.289 10.226C317.111 9.862 316.855 9.57733 316.519 9.372C316.183 9.15733 315.805 9.05 315.385 9.05C314.955 9.05 314.577 9.15733 314.251 9.372C313.924 9.57733 313.667 9.862 313.481 10.226C313.294 10.59 313.201 11.0147 313.201 11.5C313.201 11.9853 313.294 12.41 313.481 12.774C313.667 13.138 313.929 13.4273 314.265 13.642C314.601 13.8473 314.983 13.95 315.413 13.95ZM320.314 15V8H321.56L321.644 9.288V15H320.314ZM325.158 15V11.416L326.488 10.996V15H325.158ZM330.002 15V11.416L331.318 10.996V15H330.002ZM325.158 11.416C325.158 10.7813 325.083 10.3007 324.934 9.974C324.794 9.638 324.593 9.40467 324.332 9.274C324.08 9.14333 323.786 9.07333 323.45 9.064C322.881 9.064 322.437 9.26467 322.12 9.666C321.803 10.0673 321.644 10.632 321.644 11.36H321.07C321.07 10.6227 321.177 9.99267 321.392 9.47C321.607 8.938 321.915 8.532 322.316 8.252C322.727 7.972 323.217 7.832 323.786 7.832C324.626 7.832 325.284 8.09333 325.76 8.616C326.245 9.12933 326.488 9.92267 326.488 10.996L325.158 11.416ZM330.002 11.416C330.002 10.7813 329.927 10.3007 329.778 9.974C329.629 9.638 329.428 9.40467 329.176 9.274C328.924 9.14333 328.63 9.07333 328.294 9.064C327.725 9.064 327.281 9.26467 326.964 9.666C326.647 10.0673 326.488 10.632 326.488 11.36H325.914C325.914 10.6227 326.021 9.99267 326.236 9.47C326.451 8.938 326.759 8.532 327.16 8.252C327.571 7.972 328.061 7.832 328.63 7.832C329.47 7.832 330.128 8.09333 330.604 8.616C331.089 9.12933 331.327 9.92267 331.318 10.996L330.002 11.416ZM336.123 15.168C335.423 15.168 334.807 15.014 334.275 14.706C333.743 14.3887 333.323 13.9547 333.015 13.404C332.716 12.8533 332.567 12.2187 332.567 11.5C332.567 10.7813 332.716 10.1467 333.015 9.596C333.314 9.04533 333.729 8.616 334.261 8.308C334.793 7.99067 335.404 7.832 336.095 7.832C336.786 7.832 337.397 7.99067 337.929 8.308C338.461 8.616 338.876 9.04533 339.175 9.596C339.474 10.1467 339.623 10.7813 339.623 11.5C339.623 12.2187 339.474 12.8533 339.175 13.404C338.876 13.9547 338.461 14.3887 337.929 14.706C337.406 15.014 336.804 15.168 336.123 15.168ZM336.123 13.95C336.543 13.95 336.916 13.8473 337.243 13.642C337.57 13.4273 337.822 13.138 337.999 12.774C338.186 12.41 338.279 11.9853 338.279 11.5C338.279 11.0147 338.186 10.59 337.999 10.226C337.822 9.862 337.565 9.57733 337.229 9.372C336.893 9.15733 336.515 9.05 336.095 9.05C335.666 9.05 335.288 9.15733 334.961 9.372C334.634 9.57733 334.378 9.862 334.191 10.226C334.004 10.59 333.911 11.0147 333.911 11.5C333.911 11.9853 334.004 12.41 334.191 12.774C334.378 13.138 334.639 13.4273 334.975 13.642C335.311 13.8473 335.694 13.95 336.123 13.95ZM341.836 11.234C341.836 10.478 341.981 9.862 342.27 9.386C342.559 8.91 342.933 8.55533 343.39 8.322C343.847 8.08867 344.328 7.972 344.832 7.972V9.232C344.412 9.232 344.011 9.29733 343.628 9.428C343.255 9.54933 342.947 9.75467 342.704 10.044C342.471 10.324 342.354 10.7067 342.354 11.192L341.836 11.234ZM341.024 15V8H342.354V15H341.024ZM346.661 11.234C346.661 10.478 346.806 9.862 347.095 9.386C347.384 8.91 347.758 8.55533 348.215 8.322C348.672 8.08867 349.153 7.972 349.657 7.972V9.232C349.237 9.232 348.836 9.29733 348.453 9.428C348.08 9.54933 347.772 9.75467 347.529 10.044C347.296 10.324 347.179 10.7067 347.179 11.192L346.661 11.234ZM345.849 15V8H347.179V15H345.849ZM353.838 15.168C353.138 15.168 352.522 15.014 351.99 14.706C351.458 14.3887 351.038 13.9547 350.73 13.404C350.431 12.8533 350.282 12.2187 350.282 11.5C350.282 10.7813 350.431 10.1467 350.73 9.596C351.029 9.04533 351.444 8.616 351.976 8.308C352.508 7.99067 353.119 7.832 353.81 7.832C354.501 7.832 355.112 7.99067 355.644 8.308C356.176 8.616 356.591 9.04533 356.89 9.596C357.189 10.1467 357.338 10.7813 357.338 11.5C357.338 12.2187 357.189 12.8533 356.89 13.404C356.591 13.9547 356.176 14.3887 355.644 14.706C355.121 15.014 354.519 15.168 353.838 15.168ZM353.838 13.95C354.258 13.95 354.631 13.8473 354.958 13.642C355.285 13.4273 355.537 13.138 355.714 12.774C355.901 12.41 355.994 11.9853 355.994 11.5C355.994 11.0147 355.901 10.59 355.714 10.226C355.537 9.862 355.28 9.57733 354.944 9.372C354.608 9.15733 354.23 9.05 353.81 9.05C353.381 9.05 353.003 9.15733 352.676 9.372C352.349 9.57733 352.093 9.862 351.906 10.226C351.719 10.59 351.626 11.0147 351.626 11.5C351.626 11.9853 351.719 12.41 351.906 12.774C352.093 13.138 352.354 13.4273 352.69 13.642C353.026 13.8473 353.409 13.95 353.838 13.95ZM364.932 15L367.298 8H368.628L366.248 15H364.932ZM360.214 15L362.538 8H363.742L361.446 15H360.214ZM360.116 15L357.736 8H359.08L361.39 15H360.116ZM364.932 15L362.636 8H363.854L366.164 15H364.932Z" fill="white"/>
</svg>
