<svg width="1440" height="640" viewBox="0 0 1440 640" fill="none" xmlns="http://www.w3.org/2000/svg">
<path opacity="0.5" d="M963 -52.7021C842.984 -73.8584 546.485 -97.7801 320.621 -24.216C38.2921 67.7391 -31.4972 555.501 -294 557" stroke="url(#paint0_linear_167_1588)"/>
<path opacity="0.5" d="M1152 -13.7021C1030.84 -34.8584 731.509 -58.7801 503.489 14.784C218.464 106.739 148.009 594.501 -117 596" stroke="url(#paint1_linear_167_1588)"/>
<path opacity="0.5" d="M1848 -85.7021C1727.98 -106.858 1431.48 -130.78 1205.62 -57.216C923.292 34.7391 853.503 522.501 591 524" stroke="url(#paint2_linear_167_1588)"/>
<path d="M1015.87 84.3657C1015.52 84.7927 1015.58 85.4228 1016.01 85.7731C1016.44 86.1234 1017.07 86.0613 1017.42 85.6343L1015.87 84.3657ZM1060.18 35.291C1044.77 50.6157 1030.05 67.0831 1015.87 84.3657L1017.42 85.6343C1031.56 68.3941 1046.23 51.9782 1061.59 36.709L1060.18 35.291Z" fill="url(#paint3_linear_167_1588)"/>
<path opacity="0.5" d="M2193 180.298C2072.98 159.142 1776.48 135.22 1550.62 208.784C1268.29 300.739 1198.5 788.501 936 790" stroke="url(#paint4_linear_167_1588)"/>
<path d="M1221.13 554.481C1220.86 554.963 1221.03 555.572 1221.51 555.842C1221.99 556.111 1222.6 555.939 1222.87 555.457L1221.13 554.481ZM1268.67 480.438C1252.69 503.985 1235.44 528.898 1221.13 554.481L1222.87 555.457C1237.13 529.968 1254.33 505.137 1270.33 481.561L1268.67 480.438Z" fill="url(#paint5_linear_167_1588)"/>
<defs>
<linearGradient id="paint0_linear_167_1588" x1="334.5" y1="-74" x2="-273" y2="566" gradientUnits="userSpaceOnUse">
<stop stop-color="#B8D2CC"/>
<stop offset="1" stop-color="#B8D2CC" stop-opacity="0"/>
</linearGradient>
<linearGradient id="paint1_linear_167_1588" x1="517.5" y1="-35" x2="179.386" y2="427.208" gradientUnits="userSpaceOnUse">
<stop stop-color="#B8D2CC"/>
<stop offset="1" stop-color="#B8D2CC" stop-opacity="0"/>
</linearGradient>
<linearGradient id="paint2_linear_167_1588" x1="1219.5" y1="-107" x2="612" y2="533" gradientUnits="userSpaceOnUse">
<stop stop-color="#B8D2CC"/>
<stop offset="1" stop-color="#B8D2CC" stop-opacity="0"/>
</linearGradient>
<linearGradient id="paint3_linear_167_1588" x1="1021.66" y1="82.5145" x2="1052.81" y2="34.0281" gradientUnits="userSpaceOnUse">
<stop stop-color="#9CF885"/>
<stop offset="1" stop-color="#9CF885" stop-opacity="0"/>
</linearGradient>
<linearGradient id="paint4_linear_167_1588" x1="1564.5" y1="159" x2="957" y2="799" gradientUnits="userSpaceOnUse">
<stop stop-color="#B8D2CC"/>
<stop offset="1" stop-color="#B8D2CC" stop-opacity="0"/>
</linearGradient>
<linearGradient id="paint5_linear_167_1588" x1="1227.57" y1="550.883" x2="1267.64" y2="485.48" gradientUnits="userSpaceOnUse">
<stop stop-color="#9CF885"/>
<stop offset="1" stop-color="#9CF885" stop-opacity="0"/>
</linearGradient>
</defs>
</svg>
