<svg width="59" height="22" viewBox="0 0 59 22" fill="none" xmlns="http://www.w3.org/2000/svg">
<rect width="59" height="22" rx="6" fill="#BEF264"/>
<path d="M14.768 15V6.6H15.944V15H14.768ZM9.068 15V6.6H10.244V15H9.068ZM10.052 11.22V10.14H15.14V11.22H10.052ZM18.3197 15V6.6H19.4957V15H18.3197ZM22.9681 11.784V10.704H24.8161C25.1041 10.704 25.3601 10.64 25.5841 10.512C25.8161 10.376 26.0001 10.196 26.1361 9.972C26.2801 9.74 26.3521 9.48 26.3521 9.192C26.3521 8.744 26.1961 8.38 25.8841 8.1C25.5721 7.82 25.1681 7.68 24.6721 7.68H22.9681V6.6L24.7081 6.588C25.2681 6.58 25.7601 6.688 26.1841 6.912C26.6161 7.136 26.9521 7.444 27.1921 7.836C27.4401 8.228 27.5641 8.68 27.5641 9.192C27.5641 9.696 27.4321 10.144 27.1681 10.536C26.9121 10.928 26.5601 11.236 26.1121 11.46C25.6641 11.676 25.1601 11.784 24.6001 11.784H22.9681ZM21.8761 15V6.6H23.0521V15H21.8761ZM26.5681 15L24.5761 11.568L25.5121 10.944L27.9001 15H26.5681ZM29.6864 15V6.6H30.8624V15H29.6864ZM39.2068 15L33.5188 7.26L34.4548 6.6L40.1428 14.328L39.2068 15ZM33.2428 15V6.6H34.4548L34.4188 7.584V15H33.2428ZM39.2068 15V6.6H40.3948V15H39.2068ZM46.5918 15.144C45.7438 15.144 44.9878 14.96 44.3238 14.592C43.6678 14.216 43.1518 13.704 42.7758 13.056C42.4078 12.4 42.2238 11.652 42.2238 10.812C42.2238 9.956 42.4078 9.204 42.7758 8.556C43.1518 7.9 43.6678 7.388 44.3238 7.02C44.9878 6.644 45.7438 6.456 46.5918 6.456C47.0558 6.456 47.4998 6.532 47.9238 6.684C48.3558 6.828 48.7438 7.032 49.0878 7.296C49.4398 7.552 49.7238 7.848 49.9398 8.184L48.9918 8.808C48.8318 8.56 48.6238 8.34 48.3678 8.148C48.1118 7.956 47.8278 7.808 47.5158 7.704C47.2118 7.592 46.9038 7.536 46.5918 7.536C45.9758 7.536 45.4278 7.676 44.9478 7.956C44.4758 8.236 44.1038 8.62 43.8318 9.108C43.5598 9.596 43.4238 10.164 43.4238 10.812C43.4238 11.444 43.5558 12.004 43.8198 12.492C44.0918 12.98 44.4678 13.364 44.9478 13.644C45.4358 13.924 45.9918 14.064 46.6158 14.064C47.1198 14.064 47.5678 13.96 47.9598 13.752C48.3598 13.544 48.6718 13.252 48.8958 12.876C49.1278 12.5 49.2438 12.064 49.2438 11.568L50.3838 11.46C50.3838 12.204 50.2198 12.852 49.8918 13.404C49.5718 13.956 49.1278 14.384 48.5598 14.688C47.9918 14.992 47.3358 15.144 46.5918 15.144ZM47.2038 11.64V10.656H50.3838V11.52L49.7838 11.64H47.2038Z" fill="#022C22"/>
</svg>
