<svg width="168" height="40" viewBox="0 0 168 40" fill="none" xmlns="http://www.w3.org/2000/svg">
<g clip-path="url(#clip0_164_6110)">
<path d="M51.25 27.4517H63.0614V23.9395H55.448V10.7102H51.25V27.4517Z" fill="white" fill-opacity="0.8"/>
<path d="M70.0591 25.1101C68.3752 25.1101 67.4976 23.6584 67.4976 21.4809C67.4976 19.3033 68.3752 17.8282 70.0591 17.8282C71.7431 17.8282 72.6444 19.3033 72.6444 21.4809C72.6444 23.6584 71.7431 25.1101 70.0591 25.1101ZM70.0829 27.8262C73.9963 27.8262 76.5578 25.0867 76.5578 21.4809C76.5578 17.875 73.9963 15.1355 70.0829 15.1355C66.1932 15.1355 63.5842 17.875 63.5842 21.4809C63.5842 25.0867 66.1932 27.8262 70.0829 27.8262Z" fill="white" fill-opacity="0.8"/>
<path d="M83.3317 31.5962C85.1342 31.5962 86.7233 31.1982 87.7906 30.2616C88.763 29.3952 89.4034 28.084 89.4034 26.2811V15.4635H85.7034V16.7513H85.656C84.9445 15.7445 83.8535 15.1123 82.2407 15.1123C79.2285 15.1123 77.1414 17.5943 77.1414 21.1065C77.1414 24.7825 79.6791 26.7962 82.4067 26.7962C83.8772 26.7962 84.8022 26.2108 85.5137 25.4147H85.6086V26.6089C85.6086 28.0606 84.9207 28.9035 83.2842 28.9035C82.0035 28.9035 81.3631 28.365 81.1496 27.7328H77.4023C77.7817 30.2382 79.9875 31.5962 83.3317 31.5962ZM83.3079 23.963C81.8612 23.963 80.9125 22.7923 80.9125 20.9894C80.9125 19.163 81.8612 17.9923 83.3079 17.9923C84.9207 17.9923 85.7746 19.3504 85.7746 20.966C85.7746 22.6518 84.9919 23.963 83.3079 23.963Z" fill="white" fill-opacity="0.8"/>
<path d="M97.0111 25.1101C95.3271 25.1101 94.4495 23.6584 94.4495 21.4809C94.4495 19.3033 95.3271 17.8282 97.0111 17.8282C98.695 17.8282 99.5963 19.3033 99.5963 21.4809C99.5963 23.6584 98.695 25.1101 97.0111 25.1101ZM97.0348 27.8262C100.948 27.8262 103.51 25.0867 103.51 21.4809C103.51 17.875 100.948 15.1355 97.0348 15.1355C93.1451 15.1355 90.5361 17.875 90.5361 21.4809C90.5361 25.0867 93.1451 27.8262 97.0348 27.8262Z" fill="white" fill-opacity="0.8"/>
<path d="M104.638 27.4517H108.504V15.4634H104.638V27.4517ZM104.638 13.8009H108.504V10.7102H104.638V13.8009Z" fill="white" fill-opacity="0.8"/>
<path d="M110.182 31.4089H114.048V26.2108H114.096C114.855 27.2177 115.969 27.8265 117.535 27.8265C120.713 27.8265 122.824 25.3445 122.824 21.4577C122.824 17.8518 120.855 15.1123 117.63 15.1123C115.969 15.1123 114.783 15.8382 113.953 16.9152H113.882V15.4635H110.182V31.4089ZM116.539 24.8762C114.878 24.8762 113.93 23.5416 113.93 21.5982C113.93 19.6547 114.783 18.1796 116.467 18.1796C118.128 18.1796 118.91 19.5377 118.91 21.5982C118.91 23.6352 118.009 24.8762 116.539 24.8762Z" fill="white" fill-opacity="0.8"/>
<path d="M129.118 27.8264C132.296 27.8264 134.644 26.4684 134.644 23.846C134.644 20.7786 132.13 20.2401 129.995 19.8889C128.454 19.6079 127.078 19.4908 127.078 18.6479C127.078 17.8986 127.813 17.5474 128.762 17.5474C129.829 17.5474 130.565 17.8752 130.707 18.9523H134.265C134.075 16.5874 132.225 15.1123 128.786 15.1123C125.916 15.1123 123.544 16.4235 123.544 18.9523C123.544 21.7621 125.797 22.324 127.908 22.6752C129.521 22.9562 130.992 23.0733 130.992 24.1504C130.992 24.923 130.256 25.3445 129.094 25.3445C127.813 25.3445 127.007 24.7591 126.865 23.565H123.212C123.331 26.2108 125.56 27.8264 129.118 27.8264Z" fill="white" fill-opacity="0.8"/>
<path d="M139.896 27.8029C141.579 27.8029 142.647 27.1473 143.524 25.9765H143.595V27.4517H147.295V15.4634H143.429V22.16C143.429 23.5883 142.623 24.5717 141.295 24.5717C140.062 24.5717 139.469 23.8458 139.469 22.5346V15.4634H135.626V23.3307C135.626 26 137.097 27.8029 139.896 27.8029Z" fill="white" fill-opacity="0.8"/>
<path d="M148.976 27.4518H152.842V20.7318C152.842 19.3035 153.554 18.2967 154.764 18.2967C155.926 18.2967 156.471 19.046 156.471 20.3338V27.4518H160.337V20.7318C160.337 19.3035 161.025 18.2967 162.258 18.2967C163.42 18.2967 163.966 19.046 163.966 20.3338V27.4518H167.832V19.6547C167.832 16.9621 166.456 15.1123 163.705 15.1123C162.14 15.1123 160.835 15.7679 159.887 17.2196H159.839C159.222 15.9318 158.013 15.1123 156.424 15.1123C154.669 15.1123 153.507 15.9318 152.748 17.1728H152.676V15.4635H148.976V27.4518Z" fill="white" fill-opacity="0.8"/>
<path fill-rule="evenodd" clip-rule="evenodd" d="M20.4407 39.1591C31.3565 39.1591 40.2055 30.4232 40.2055 19.6469C40.2055 8.87068 31.3565 0.134766 20.4407 0.134766C9.52497 0.134766 0.676025 8.87068 0.676025 19.6469C0.676025 30.4232 9.52497 39.1591 20.4407 39.1591ZM26.6066 9.22437C26.9068 8.17189 25.8722 7.54953 24.9273 8.21408L11.7375 17.4904C10.7128 18.2111 10.8739 19.6469 11.9796 19.6469H15.4528V19.6204H22.222L16.7064 21.5417L14.2749 30.0696C13.9747 31.1221 15.0092 31.7444 15.9542 31.0798L29.144 21.8035C30.1687 21.0828 30.0075 19.6469 28.9019 19.6469H23.6348L26.6066 9.22437Z" fill="white" fill-opacity="0.8"/>
</g>
<defs>
<clipPath id="clip0_164_6110">
<rect width="168" height="40" fill="white"/>
</clipPath>
</defs>
</svg>
